<svg width="38" height="43" viewBox="0 0 38 43" fill="none" xmlns="http://www.w3.org/2000/svg">
<path d="M0 38.9688C0 41.1943 1.82366 43 4.07143 43H33.9286C36.1763 43 38 41.1943 38 38.9688V16.125H0V38.9688ZM27.1429 22.5078C27.1429 21.9535 27.6009 21.5 28.1607 21.5H31.5536C32.1134 21.5 32.5714 21.9535 32.5714 22.5078V25.8672C32.5714 26.4215 32.1134 26.875 31.5536 26.875H28.1607C27.6009 26.875 27.1429 26.4215 27.1429 25.8672V22.5078ZM27.1429 33.2578C27.1429 32.7035 27.6009 32.25 28.1607 32.25H31.5536C32.1134 32.25 32.5714 32.7035 32.5714 33.2578V36.6172C32.5714 37.1715 32.1134 37.625 31.5536 37.625H28.1607C27.6009 37.625 27.1429 37.1715 27.1429 36.6172V33.2578ZM16.2857 22.5078C16.2857 21.9535 16.7437 21.5 17.3036 21.5H20.6964C21.2562 21.5 21.7143 21.9535 21.7143 22.5078V25.8672C21.7143 26.4215 21.2562 26.875 20.6964 26.875H17.3036C16.7437 26.875 16.2857 26.4215 16.2857 25.8672V22.5078ZM16.2857 33.2578C16.2857 32.7035 16.7437 32.25 17.3036 32.25H20.6964C21.2562 32.25 21.7143 32.7035 21.7143 33.2578V36.6172C21.7143 37.1715 21.2562 37.625 20.6964 37.625H17.3036C16.7437 37.625 16.2857 37.1715 16.2857 36.6172V33.2578ZM5.42857 22.5078C5.42857 21.9535 5.88661 21.5 6.44643 21.5H9.83928C10.3991 21.5 10.8571 21.9535 10.8571 22.5078V25.8672C10.8571 26.4215 10.3991 26.875 9.83928 26.875H6.44643C5.88661 26.875 5.42857 26.4215 5.42857 25.8672V22.5078ZM5.42857 33.2578C5.42857 32.7035 5.88661 32.25 6.44643 32.25H9.83928C10.3991 32.25 10.8571 32.7035 10.8571 33.2578V36.6172C10.8571 37.1715 10.3991 37.625 9.83928 37.625H6.44643C5.88661 37.625 5.42857 37.1715 5.42857 36.6172V33.2578ZM33.9286 5.375H29.8571V1.34375C29.8571 0.604688 29.2464 0 28.5 0H25.7857C25.0393 0 24.4286 0.604688 24.4286 1.34375V5.375H13.5714V1.34375C13.5714 0.604688 12.9607 0 12.2143 0H9.5C8.75357 0 8.14286 0.604688 8.14286 1.34375V5.375H4.07143C1.82366 5.375 0 7.18066 0 9.40625V13.4375H38V9.40625C38 7.18066 36.1763 5.375 33.9286 5.375Z" fill="#5846AD"/>
</svg>
