<svg width="69" height="45" viewBox="0 0 69 45" fill="none" xmlns="http://www.w3.org/2000/svg">
<path d="M68.5832 20.7891C62.0869 8.38945 49.226 0 34.5 0C19.774 0 6.90953 8.39531 0.41681 20.7902C0.142777 21.3205 0 21.9064 0 22.5006C0 23.0948 0.142777 23.6807 0.41681 24.2109C6.91312 36.6105 19.774 45 34.5 45C49.226 45 62.0905 36.6047 68.5832 24.2098C68.8572 23.6795 69 23.0936 69 22.4994C69 21.9052 68.8572 21.3193 68.5832 20.7891ZM34.5 39.375C31.0883 39.375 27.7531 38.3853 24.9164 36.5311C22.0796 34.6768 19.8687 32.0413 18.563 28.9578C17.2574 25.8743 16.9158 22.4813 17.5814 19.2079C18.247 15.9344 19.8899 12.9276 22.3024 10.5676C24.7148 8.20756 27.7885 6.60037 31.1347 5.94925C34.4809 5.29812 37.9493 5.6323 41.1013 6.90953C44.2533 8.18676 46.9474 10.3497 48.8429 13.1248C50.7383 15.8998 51.75 19.1624 51.75 22.5C51.7511 24.7164 51.3057 26.9112 50.4392 28.9591C49.5727 31.0069 48.3021 32.8676 46.7001 34.4348C45.098 36.002 43.196 37.245 41.1026 38.0927C39.0092 38.9403 36.7656 39.3761 34.5 39.375ZM34.5 11.25C33.4735 11.264 32.4537 11.4134 31.4681 11.6941C32.2805 12.7742 32.6704 14.1034 32.567 15.4406C32.4636 16.7777 31.8737 18.0344 30.9044 18.9826C29.9351 19.9308 28.6506 20.5079 27.2837 20.609C25.9168 20.7102 24.5581 20.3288 23.454 19.534C22.8253 21.7999 22.9388 24.2017 23.7785 26.4012C24.6182 28.6007 26.1419 30.4872 28.135 31.7953C30.1281 33.1033 32.4904 33.7669 34.8893 33.6928C37.2882 33.6187 39.6029 32.8105 41.5077 31.382C43.4124 29.9535 44.8113 27.9767 45.5075 25.7297C46.2036 23.4827 46.1619 21.0787 45.3882 18.8561C44.6146 16.6336 43.1479 14.7043 41.1947 13.3398C39.2415 11.9754 36.9001 11.2445 34.5 11.25Z" fill="#5846AD"/>
</svg>
