<svg width="45" height="44" viewBox="0 0 45 44" fill="none" xmlns="http://www.w3.org/2000/svg">
<path d="M9.14063 19.25H2.10938C0.944385 19.25 0 20.1734 0 21.3125V41.9375C0 43.0766 0.944385 44 2.10938 44H9.14063C10.3056 44 11.25 43.0766 11.25 41.9375V21.3125C11.25 20.1734 10.3056 19.25 9.14063 19.25ZM5.625 40.5625C4.46001 40.5625 3.51563 39.6391 3.51563 38.5C3.51563 37.3609 4.46001 36.4375 5.625 36.4375C6.78999 36.4375 7.73438 37.3609 7.73438 38.5C7.73438 39.6391 6.78999 40.5625 5.625 40.5625ZM33.75 6.99978C33.75 10.6449 31.4675 12.6895 30.8253 15.125H39.7658C42.7011 15.125 44.9862 17.5094 44.9999 20.1178C45.0073 21.6593 44.3367 23.3189 43.2914 24.3457L43.2818 24.3551C44.1463 26.3606 44.0057 29.1708 42.4637 31.1845C43.2267 33.4098 42.4576 36.1434 41.0239 37.6089C41.4016 39.1212 41.2211 40.4083 40.4835 41.4445C38.6897 43.9645 34.2436 44 30.4839 44L30.2339 43.9999C25.9899 43.9985 22.5165 42.4876 19.7257 41.2735C18.3232 40.6635 16.4894 39.9083 15.0981 39.8833C14.5233 39.8729 14.0625 39.4143 14.0625 38.8522V20.4813C14.0625 20.2063 14.1752 19.9424 14.3752 19.749C17.8569 16.3851 19.3541 12.8236 22.2078 10.0286C23.5089 8.75394 23.9821 6.82859 24.4396 4.96667C24.8304 3.37674 25.648 0 27.4219 0C29.5313 0 33.75 0.6875 33.75 6.99978Z" fill="#5846AD"/>
</svg>
