<svg width="45" height="45" viewBox="0 0 45 45" fill="none" xmlns="http://www.w3.org/2000/svg">
<path d="M22.5 0C10.0706 0 0 10.0706 0 22.5C0 34.9294 10.0706 45 22.5 45C34.9294 45 45 34.9294 45 22.5C45 10.0706 34.9294 0 22.5 0ZM27.6804 31.7631L19.6784 25.9476C19.3972 25.7389 19.2339 25.4123 19.2339 25.0675V9.79839C19.2339 9.1996 19.7238 8.70968 20.3226 8.70968H24.6774C25.2762 8.70968 25.7661 9.1996 25.7661 9.79839V22.2913L31.5272 26.4829C32.0171 26.8367 32.1169 27.5171 31.7631 28.0071L29.2046 31.5272C28.8508 32.0081 28.1704 32.1169 27.6804 31.7631Z" fill="#5846AD"/>
</svg>
